<?xml version="1.0" encoding="iso-8859-1"?>
<!-- Generator: Adobe Illustrator 21.0.0, SVG Export Plug-In . SVG Version: 6.00 Build 0)  -->
<svg xmlns="http://www.w3.org/2000/svg" xmlns:xlink="http://www.w3.org/1999/xlink" version="1.1" id="Capa_1" x="0px" y="0px" viewBox="0 0 512 512" style="enable-background:new 0 0 512 512;" xml:space="preserve" width="512" height="512">
<g>
	<g>
		<g>
			<g>
				<g>
					<g>
						<g>
							<g>
								<g>
									<g>
										<circle style="fill:#19CFFC;" cx="256" cy="256" r="256"/>
									</g>
								</g>
							</g>
						</g>
					</g>
				</g>
			</g>
		</g>
	</g>
	<path style="fill:#41B3E5;" d="M512,256c0-1.95-0.03-3.893-0.074-5.832L359.667,97.909L134.494,264.721l63.743,63.744   l-11.395,16.76l56.952,56.952c-1.562,2.384-3.16,4.86-4.693,7.296l-78.691-78.691H67.319l181.098,181.098   c2.52,0.073,5.046,0.121,7.583,0.121C397.385,512,512,397.385,512,256z"/>
	<g>
		<path style="fill:#FFFFFF;" d="M67.319,330.782h21.053v118.708c4.616,4.003,9.378,7.842,14.275,11.511l36.711-32.146v-98.072    h21.053l-46.546-60.476L67.319,330.782z"/>
	</g>
	<g>
		<path style="fill:#FFFFFF;" d="M388.73,289.616l-75.009,97.457h33.927v108.014c30.664-11.762,58.486-29.249,82.164-51.159v-56.855    h33.927L388.73,289.616z"/>
	</g>
	<g>
		<g>
			<g>
				<g>
					<path style="fill:#FAA68E;" d="M294.5,373.643V348h-77v25.643c0,11.622-7.268,22.004-18.188,25.981l-118.397,43.12       C126.701,485.688,188.273,512,256,512s129.299-26.312,175.085-69.256l-118.397-43.12       C301.768,395.647,294.5,385.265,294.5,373.643z"/>
				</g>
			</g>
		</g>
		<g>
			<g>
				<g>
					<path style="fill:#E09380;" d="M431.085,442.744l-118.397-43.12c-10.92-3.977-18.188-14.359-18.188-25.981V348h-38.69v163.998       c0.064,0,0.127,0.002,0.19,0.002C323.727,512,385.299,485.688,431.085,442.744z"/>
				</g>
			</g>
		</g>
		<g>
			<g>
				<g>
					<g>
						<circle style="fill:#FFBEAA;" cx="156.34" cy="239.904" r="33.071"/>
					</g>
				</g>
			</g>
			<g>
				<g>
					<g>
						<circle style="fill:#FAA68E;" cx="355.66" cy="239.904" r="33.071"/>
					</g>
				</g>
			</g>
		</g>
		<g>
			<g>
				<g>
					<path style="fill:#FFBEAA;" d="M300.032,363.714l-22.084,11.345c-13.776,7.077-30.12,7.077-43.896,0l-22.084-11.345       c-32.726-16.811-53.301-50.512-53.301-87.303v-86.077C158.667,136.578,202.244,93,256,93h0       c53.756,0,97.333,43.578,97.333,97.333v86.077C353.333,313.202,332.758,346.903,300.032,363.714z"/>
				</g>
			</g>
		</g>
		<g>
			<g>
				<g>
					<path style="fill:#FAA68E;" d="M256,93L256,93c-0.064,0-0.127,0.002-0.191,0.002v287.358c7.593,0.03,15.192-1.734,22.138-5.302       l22.084-11.345c32.726-16.811,53.301-50.512,53.301-87.304v-86.077C353.333,136.578,309.756,93,256,93z"/>
				</g>
			</g>
		</g>
		<g>
			<g>
				<path style="fill:#555A66;" d="M314.259,81.667h-10.093c-4.084,0-7.645,2.199-9.592,5.471c-1.653-3.244-5.017-5.471-8.908-5.471      H215.5c-47.22,0-85.5,38.28-85.5,85.5v0c0,16.659,7.13,31.649,18.5,42.097V277.5h20v-56.301      c5.852,2.021,12.128,3.134,18.667,3.134H238.5c25.949,0,47.846-17.295,54.828-40.983c2.697,23.074,22.3,40.982,46.098,40.982h0      c1.374,0,2.73-0.072,4.074-0.189V277.5h20v-59.888c13.4-8.143,22.352-22.878,22.352-39.704v-24.648      C385.852,113.72,353.799,81.667,314.259,81.667z"/>
			</g>
		</g>
		<g>
			<g>
				<path style="fill:#333940;" d="M314.259,81.667h-10.093c-4.084,0-7.645,2.199-9.592,5.471c-1.653-3.244-5.017-5.471-8.908-5.471      H255.81v139.986c18.015-5.722,32.161-20.124,37.519-38.302c2.697,23.074,22.3,40.982,46.098,40.982h0      c1.374,0,2.73-0.072,4.074-0.189V277.5h20v-59.888c13.4-8.143,22.352-22.878,22.352-39.704v-24.648      C385.852,113.72,353.799,81.667,314.259,81.667z"/>
			</g>
		</g>
		<g>
			<g>
				<path style="fill:#DBEEFF;" d="M312.688,399.624c-5.31-1.934-9.746-5.39-12.913-9.759L256,422.333l-43.775-32.469      c-3.167,4.369-7.603,7.825-12.913,9.759l-118.397,43.12C126.701,485.688,188.273,512,256,512s129.299-26.312,175.085-69.256      L312.688,399.624z"/>
			</g>
		</g>
		<g>
			<g>
				<path style="fill:#BFE1FF;" d="M431.085,442.744l-118.397-43.12c-5.31-1.934-9.746-5.39-12.913-9.759L256,422.333l-0.19-0.141      v89.806c0.064,0,0.127,0.002,0.19,0.002C323.727,512,385.299,485.688,431.085,442.744z"/>
			</g>
		</g>
		<g>
			<g>
				<polygon style="fill:#333940;" points="268,461.708 244,461.708 234,422.375 278,422.375     "/>
			</g>
		</g>
		<g>
			<g>
				<polygon style="fill:#23272B;" points="278,422.375 255.81,422.375 255.81,461.708 268,461.708     "/>
			</g>
		</g>
		<g>
			<g>
				<path style="fill:#333940;" d="M236.711,511.279C243.079,511.754,249.511,512,256,512s12.921-0.246,19.289-0.721L268,461.708      h-24L236.711,511.279z"/>
			</g>
		</g>
		<g>
			<g>
				<path style="fill:#23272B;" d="M275.289,511.279L268,461.708h-12.19v50.29c0.064,0,0.127,0.002,0.19,0.002      C262.489,512,268.921,511.754,275.289,511.279z"/>
			</g>
		</g>
		<g>
			<g>
				<polygon style="fill:#FFFFFF;" points="256,422.333 219.667,462.333 189.411,399 205.667,385     "/>
			</g>
		</g>
		<g>
			<g>
				<path style="fill:#555A66;" d="M189.411,399L78.665,440.617c37.221,35.762,85.227,60.38,138.659,68.477L189.411,399z"/>
			</g>
		</g>
		<g>
			<g>
				<polygon style="fill:#DCE1EB;" points="256,422.333 292.333,462.333 322.589,399 306.333,385     "/>
			</g>
		</g>
		<g>
			<g>
				<path style="fill:#333940;" d="M433.335,440.617L322.589,399l-27.913,110.094C348.109,500.996,396.114,476.378,433.335,440.617z      "/>
			</g>
		</g>
		<g>
			<g>
				<path style="fill:#333940;" d="M217.324,509.094L189.411,399l-37.078,63.333L189.411,481l-10.968,19.026      C191.012,504.018,203.997,507.074,217.324,509.094z"/>
			</g>
		</g>
		<g>
			<g>
				<path style="fill:#23272B;" d="M294.676,509.094L322.589,399l37.078,63.333L322.589,481l10.968,19.026      C320.988,504.018,308.003,507.074,294.676,509.094z"/>
			</g>
		</g>
	</g>
</g>















</svg>
